# Blender v2.83.10 OBJ File: 'plantilla_arbre.blend'
# www.blender.org
mtllib arbre.mtl
o polygon0.001
v -1.000000 -0.000000 1.000000
v 3.000000 -0.000000 1.000000
v 3.000000 0.000000 -3.000000
v -1.000000 0.000000 -3.000000
v -3.000000 -0.000000 0.250000
v 5.000000 -0.000000 0.250000
v 5.000000 6.167969 -4.845702
v -3.000000 6.167969 -4.845702
vt 0.000000 -1.000000
vt 1.000000 -1.000000
vt 1.000000 0.000000
vt 0.000000 0.000000
vt 0.000000 -1.000000
vt 1.000000 -1.000000
vt 1.000000 0.000000
vt 0.000000 0.000000
vn 0.0000 1.0000 0.0000
vn 0.0000 0.6364 0.7714
vn -0.0000 0.6365 0.7712
g polygon0.001_polygon0.001_tree01_un
usemtl tree01_un
s 1
f 1/1/1 2/2/1 3/3/1
f 3/3/1 4/4/1 1/1/1
g polygon0.001_polygon0.001_tree01
usemtl tree01
f 5/5/2 6/6/3 7/7/2
f 7/7/2 8/8/3 5/5/2
