# Blender v2.83.3 OBJ File: 'plantilla_cliffCornerOut.blend'
# www.blender.org
mtllib cliffCornerOut.mtl
o cliffCornerOut_Grid.008
v 1.000000 0.000000 1.000000
v 0.875000 0.000000 0.125000
v -0.250000 0.200000 -0.625000
v 0.625000 0.200000 0.250000
v -0.125000 0.000000 -0.875000
v 1.000000 0.000000 -1.000000
v -1.000000 0.200000 -0.750000
v -1.000000 0.000000 -1.000000
v -1.000000 1.800000 0.500000
v 0.750000 0.200000 1.000000
v -1.000000 2.000000 1.000000
v -0.500000 1.800000 1.000000
vt 0.030608 0.855870
vt 0.086153 0.828131
vt 0.092942 0.874989
vt 0.125144 0.822184
vt 0.125111 0.858875
vt 0.125209 0.812621
vt 0.000079 0.875005
vt 0.014367 0.851092
vt 0.079245 0.820039
vt 0.000054 0.812392
vt 0.020568 0.874978
vt 0.125111 0.875018
vn 0.5445 0.6380 -0.5445
vn 0.1302 0.6104 -0.7813
vn 0.1036 0.7767 -0.6213
vn 0.5961 0.7984 -0.0852
vn 0.4258 0.7984 -0.4258
vn 0.0852 0.7984 -0.5961
vn 0.0000 1.0000 0.0000
vn 0.7813 0.6104 -0.1302
vn 0.6213 0.7767 -0.1036
vn 0.3482 0.8704 -0.3482
usemtl Material
s off
f 4/1/1 3/2/1 12/3/1
f 7/4/2 9/5/2 3/2/2
f 8/6/3 7/4/3 3/2/3
f 4/1/4 1/7/4 2/8/4
f 3/2/5 4/1/5 2/8/5
f 3/2/5 2/8/5 5/9/5
f 8/6/6 3/2/6 5/9/6
f 2/8/7 1/7/7 6/10/7
f 5/9/7 2/8/7 6/10/7
f 8/6/7 5/9/7 6/10/7
f 12/3/8 10/11/8 4/1/8
f 10/11/9 1/7/9 4/1/9
f 11/12/10 12/3/10 9/5/10
f 12/3/1 3/2/1 9/5/1
