# Blender v2.83.3 OBJ File: 'plantilla_cliffCornerOut_herba.blend'
# www.blender.org
mtllib cliffCornerOut_herba.mtl
o polygon6.002
v -0.999998 0.197276 0.578128
v -0.999998 0.000004 1.000000
v -0.124998 0.197276 0.500000
v 0.250002 0.000004 0.875000
v 0.500002 0.197276 0.000000
v 0.875002 0.000004 0.375000
v 0.578131 0.197276 -1.000000
v 1.000002 0.000004 -1.000000
v -0.999998 0.197276 0.578128
v -0.124998 0.197276 0.500000
v -0.999998 1.994148 -0.339840
v 0.500002 0.197276 0.000000
v -0.339838 1.994148 -1.000000
v 0.578131 0.197276 -1.000000
v -0.339838 1.994148 -1.000000
v -0.999998 2.000004 -1.000000
v -0.999998 1.994148 -0.339840
vt 0.376172 0.605990
vt 0.344922 0.512240
vt 0.501172 0.605990
vt 0.501172 0.512240
vt 0.688672 0.605990
vt 0.688672 0.512240
vt 0.813672 0.605990
vt 0.844922 0.512240
vt 0.376172 0.605990
vt 0.501172 0.605990
vt 0.501172 0.893099
vt 0.688672 0.605990
vt 0.688672 0.893099
vt 0.813672 0.605990
vt 0.688672 0.907044
vt 0.594922 1.000794
vt 0.501172 0.907044
vn 0.0644 0.7163 0.6948
vn 0.0665 0.9814 0.1799
vn 0.2303 0.7652 0.6012
vn 0.5704 0.7442 0.3477
vn 0.1661 0.9828 0.0801
vn 0.6961 0.7157 0.0567
vn 0.2208 0.9751 0.0195
vn 0.3322 0.7309 0.5961
vn 0.5703 0.7442 0.3477
vn 0.5665 0.7852 0.2500
vn -0.0000 1.0000 -0.0000
usemtl wall01_d.002
s 1
f 1/1/1 2/2/2 3/3/3
f 2/2/2 4/4/2 3/3/3
f 3/3/3 4/4/2 5/5/4
f 4/4/2 6/6/5 5/5/4
f 5/5/4 6/6/5 7/7/6
f 6/6/5 8/8/7 7/7/6
f 9/9/1 10/10/3 11/11/8
f 10/10/3 12/12/9 11/11/8
f 11/11/8 12/12/9 13/13/10
f 12/12/9 14/14/6 13/13/10
f 15/15/10 16/16/11 17/17/8
o polygon17.001
v -1.000000 -0.000000 1.000000
v 1.000000 -0.000000 1.000000
v 1.000000 0.000000 -1.000000
v -1.000000 0.000000 -1.000000
vt 0.000000 0.000000
vt 1.000000 0.000000
vt 1.000000 1.000000
vt 0.000000 1.000000
vn 0.0000 1.0000 0.0000
usemtl grass01_a
s 1
f 18/18/12 19/19/12 20/20/12
f 20/20/12 21/21/12 18/18/12
