# Blender v2.83.8 OBJ File: ''
# www.blender.org
mtllib cliffCornerIn_herba2.mtl
o polygon15.002
v 1.000000 2.000002 -0.999999
v -1.000000 2.000002 -0.999998
v -0.339843 1.994143 -0.339843
v 1.000000 1.994143 -0.339843
v -1.000000 2.000002 -0.999998
v -1.000000 2.000004 1.000001
v -0.339843 1.994144 1.000001
v -0.339843 1.994143 -0.339843
v 1.000000 0.197269 0.578127
v 0.789063 0.197269 0.789065
v 1.000000 0.000004 1.000002
v 0.578125 0.197269 1.000002
v 1.000000 1.994143 -0.339843
v -0.339843 1.994143 -0.339843
v 1.000000 0.197269 0.578127
v 0.789063 0.197269 0.789065
v -0.339843 1.994144 1.000001
v 0.578125 0.197269 1.000002
v -0.339843 1.994143 -0.339843
v 0.789063 0.197269 0.789065
vt 1.000000 -0.013672
vt 0.824219 -0.013672
vt 0.908203 -0.099609
vt 1.000000 -0.099609
vt 1.500000 -0.013672
vt 1.000000 -0.013672
vt 1.000000 -0.099609
vt 1.279297 -0.099609
vt 0.437500 0.107422
vt 0.285156 0.107422
vt 0.285156 0.017578
vt 0.437500 0.107422
vt 0.437500 -0.093750
vt 0.285156 -0.093750
vt 0.437500 -0.390625
vt 0.285156 -0.390625
vt 0.437500 -0.093750
vt 0.437500 -0.390625
vt 0.285156 -0.093750
vt 0.285156 -0.390625
vn -0.0000 1.0000 0.0000
vn 0.3905 0.8337 0.3905
vn -0.0000 0.8505 0.5260
vn 0.5260 0.8505 -0.0000
vn 0.3322 0.7309 0.5961
vn 0.4629 0.7559 0.4629
vn 0.3905 0.8336 0.3905
vn 0.6426 0.6934 0.3262
vn -0.0000 0.8505 0.5259
vn 0.3904 0.8337 0.3905
vn 0.3323 0.7309 0.5961
vn 0.5259 0.8505 -0.0000
vn 0.3905 0.8337 0.3904
usemtl wall01_g.001
s 1
f 1/1/1 2/2/1 3/3/2
f 3/3/2 4/4/3 1/1/1
f 5/5/1 6/6/1 7/7/4
f 7/7/4 8/8/2 5/5/1
usemtl wall01_d.002
f 9/9/5 10/10/6 11/11/7
f 10/10/6 12/12/8 11/11/7
f 13/13/9 14/14/10 15/15/11
f 14/14/10 16/16/6 15/15/11
f 17/17/12 18/18/8 19/19/13
f 18/18/8 20/20/6 19/19/13
