# Blender v2.83.3 OBJ File: 'plantilla_porta.blend'
# www.blender.org
mtllib DOOR.mtl
o polygon0
v -2.500000 3.249507 0.257691
v -2.500000 0.127559 0.257690
v 0.000000 0.127559 0.257690
v 0.000000 3.249507 0.257691
v -2.500000 0.127559 0.000000
v -2.500000 0.127559 0.257690
v -2.500000 3.249507 0.257691
v -2.500000 3.249507 0.000001
v 0.000000 0.127559 0.257690
v 0.000000 0.127559 0.000000
v 0.000000 3.249507 0.000001
v 0.000000 3.249507 0.257691
v -2.500000 3.249507 0.257691
v 0.000000 3.249507 0.257691
v 0.000000 3.249507 0.000001
v -2.500000 3.249507 0.000001
vt 0.000000 0.000000
vt 0.000000 -1.000000
vt 0.750000 -1.000000
vt 0.750000 0.000000
vt 0.902344 -0.404297
vt 0.978516 -0.404297
vt 0.978516 -0.304688
vt 0.902344 -0.304688
vt 0.816406 -0.404297
vt 0.892578 -0.404297
vt 0.892578 -0.304688
vt 0.816406 -0.304688
vt 0.820312 -0.308594
vt 0.820312 -0.404297
vt 0.880859 -0.404297
vt 0.880859 -0.308594
vn 0.0000 -0.0000 1.0000
vn -1.0000 0.0000 0.0000
vn 1.0000 0.0000 0.0000
vn 0.0000 1.0000 0.0000
usemtl yo_door1
s 1
f 1/1/1 2/2/1 3/3/1
f 3/3/1 4/4/1 1/1/1
f 5/5/2 6/6/2 7/7/2
f 7/7/2 8/8/2 5/5/2
f 9/9/3 10/10/3 11/11/3
f 11/11/3 12/12/3 9/9/3
f 13/13/4 14/14/4 15/15/4
f 15/15/4 16/16/4 13/13/4
