# Blender v2.83.3 OBJ File: 'plantilla_cliff_original.blend'
# www.blender.org
mtllib plantilla_cliff_original.mtl
o polygon6.001
v -1.000000 0.197276 0.578131
v 1.000000 0.197276 0.578131
v -1.000000 1.994148 -0.339838
v 1.000000 1.994148 -0.339838
v -1.000000 2.000004 -0.999998
v 1.000000 2.000004 -0.999998
v -1.000000 0.000004 1.000002
v 1.000000 0.000004 1.000002
v 1.000000 0.197276 0.578131
v -1.000000 0.197276 0.578131
vt 0.000000 0.604672
vt 0.500000 0.604672
vt 0.000000 0.901547
vt 0.500000 0.901547
vt 0.000000 0.983578
vt 0.500000 0.983578
vt 0.000000 0.510772
vt 0.500000 0.510772
vt 0.500000 0.604522
vt 0.000000 0.604522
vn -0.0000 0.7187 0.6953
vn 0.0000 0.8506 0.5258
vn 0.0000 1.0000 0.0000
vn 0.0000 0.9047 0.4260
usemtl wall01_d.001
s 1
f 1/1/1 2/2/1 3/3/2
f 2/2/1 4/4/2 3/3/2
f 3/3/2 4/4/2 5/5/3
f 4/4/2 6/6/3 5/5/3
f 7/7/4 8/8/4 9/9/1
f 9/9/1 10/10/1 7/7/4
