# Blender v2.83.8 OBJ File: 'plantilla_casa.blend'
# www.blender.org
mtllib plantilla_casa.mtl
o polygon0
v 3.625000 3.425000 2.125000
v 3.375000 3.050000 2.125000
v 3.625000 0.496045 2.125000
v 3.375000 0.871045 2.125000
v 1.625000 0.496045 2.125000
v 1.875000 0.871045 2.125000
v 1.625000 3.425000 2.125000
v 1.875000 3.050000 2.125000
v 3.625000 3.425000 2.125000
v 3.375000 3.050000 2.125000
v 1.000000 7.492871 -0.210448
v 1.996338 7.492871 -0.227538
v 1.000000 7.492872 -2.999999
v 1.996338 7.492872 -1.924071
v 5.125000 7.492872 -2.999999
v 4.128662 7.492872 -1.924071
v 5.125000 7.492871 2.500001
v 4.128662 7.492871 0.424074
v 1.250000 0.050000 2.000000
v 4.750000 0.050000 2.000000
v 1.250000 3.300000 2.000000
v 4.750000 4.550000 2.000001
v -1.250000 3.300000 2.000000
v -2.750000 4.550000 2.000001
v -1.250000 0.050000 2.000000
v -2.750000 0.050000 2.000000
v 4.003662 7.114209 0.299073
v 4.003662 7.114210 -1.799071
v 3.755615 7.114209 -1.423827
v 3.755615 7.114209 -0.076171
v 2.121338 7.114209 0.299073
v 4.003662 7.114209 0.299073
v 3.755615 7.114209 -0.076171
v 2.369385 7.114209 -0.076171
v 2.121338 7.114209 0.299073
v 2.121338 7.114210 -1.799071
v 1.996338 7.492872 -1.924071
v 1.996338 7.492871 -0.227538
v 4.128662 7.492872 -1.924071
v 1.996338 7.492872 -1.924071
v 2.121338 7.114210 -1.799071
v 4.003662 7.114210 -1.799071
v 4.003662 7.114209 0.299073
v 4.128662 7.492871 0.424074
v 4.128662 7.492872 -1.924071
v 4.003662 7.114210 -1.799071
v 1.996338 7.492871 0.424074
v 4.128662 7.492871 0.424074
v 4.003662 7.114209 0.299073
v 2.121338 7.114209 0.299073
v 1.000000 7.492871 -0.210448
v 1.000000 7.492871 2.500001
v 1.996338 7.492871 0.424074
v 1.996338 7.492871 -0.227538
v -3.375000 4.992871 -0.210448
v -3.375000 4.239697 -0.210448
v -3.375000 4.239697 2.500001
v -3.375000 4.992871 2.500001
v -3.375000 4.992871 -0.210448
v 1.000000 7.492871 -0.210448
v 1.000000 7.492872 -2.999999
v -3.375000 4.992872 -2.999999
v 4.750000 4.550000 2.219971
v 4.750000 4.550000 1.969971
v 4.750000 6.675000 1.969972
v 4.750000 6.675000 2.219972
v 4.000000 4.550000 1.969971
v 4.000000 4.550000 2.219971
v 4.000000 6.675000 2.219972
v 4.000000 6.675000 1.969972
v 4.000000 4.550000 2.219971
v 4.750000 4.550000 2.219971
v 4.750000 6.675000 2.219972
v 4.000000 6.675000 2.219972
v 5.125000 6.739697 2.500001
v 5.125000 6.739698 -2.999999
v 5.125000 7.492872 -2.999999
v 5.125000 7.492871 2.500001
v 1.000000 6.739697 2.500001
v 5.125000 6.739697 2.500001
v 5.125000 7.492871 2.500001
v 1.000000 7.492871 2.500001
v -3.375000 4.239698 -2.999999
v -3.375000 4.239697 -0.210448
v -3.375000 4.992871 -0.210448
v -3.375000 4.992872 -2.999999
v -3.375000 4.239697 2.500001
v 1.000000 6.739697 2.500001
v 1.000000 7.492871 2.500001
v -3.375000 4.992871 2.500001
v -3.375000 4.992871 2.500001
v 1.000000 7.492871 2.500001
v 1.000000 7.492871 -0.210448
v -3.375000 4.992871 -0.210448
v 1.000000 4.550000 2.000001
v 4.750000 4.550000 2.000001
v 4.750000 6.675000 2.000001
v 1.000000 6.675000 2.000001
v 4.750000 4.550000 2.000001
v 4.750000 4.550001 -2.499999
v 4.750000 6.675001 -2.499999
v 4.750000 6.675000 2.000001
v 1.250000 0.050000 0.500000
v 1.250000 0.050000 1.750000
v 1.250000 3.300000 2.000000
v 1.250000 3.300000 0.500001
v 4.000000 1.050000 2.000000
v 4.000000 1.050000 2.375000
v 4.000000 4.050000 2.375001
v 4.000000 4.050000 2.000001
v 4.750000 1.050000 2.375000
v 4.750000 1.050000 2.000000
v 4.750000 4.050000 2.000001
v 4.750000 4.050000 2.375001
v 4.000000 1.050000 2.375000
v 4.750000 1.050000 2.375000
v 4.750000 4.050000 2.375001
v 4.000000 4.050000 2.375001
v 4.000000 0.050000 2.000000
v 4.000000 0.050000 2.375000
v 4.000000 1.050000 2.375000
v 4.000000 1.050000 2.000000
v 4.750000 0.050000 2.375000
v 4.750000 0.050000 2.000000
v 4.750000 1.050000 2.000000
v 4.750000 1.050000 2.375000
v 4.000000 0.050000 2.375000
v 4.750000 0.050000 2.375000
v 4.750000 1.050000 2.375000
v 4.000000 1.050000 2.375000
v 0.375000 5.050000 2.125001
v 1.625000 5.050000 2.125001
v 1.625000 6.175000 2.125001
v 0.375000 6.175000 2.125001
v -2.750000 1.050000 2.000000
v -2.750000 1.050000 2.375000
v -2.750000 4.050000 2.375001
v -2.750000 4.050000 2.000001
v -2.000000 1.050000 2.375000
v -2.000000 1.050000 2.000000
v -2.000000 4.050000 2.000001
v -2.000000 4.050000 2.375001
v -2.750000 1.050000 2.375000
v -2.000000 1.050000 2.375000
v -2.000000 4.050000 2.375001
v -2.750000 4.050000 2.375001
v -2.750000 0.050000 2.000000
v -2.750000 0.050000 2.375000
v -2.750000 1.050000 2.375000
v -2.750000 1.050000 2.000000
v -2.000000 0.050000 2.375000
v -2.000000 0.050000 2.000000
v -2.000000 1.050000 2.000000
v -2.000000 1.050000 2.375000
v -2.750000 0.050000 2.375000
v -2.000000 0.050000 2.375000
v -2.000000 1.050000 2.375000
v -2.750000 1.050000 2.375000
v 1.000000 4.550000 2.000001
v 1.000000 4.550000 2.375001
v 4.750000 4.550000 2.375001
v 4.750000 4.550000 2.000001
v 1.000000 4.550000 2.375001
v 1.000000 4.050000 2.375001
v 4.750000 4.050000 2.375001
v 4.750000 4.550000 2.375001
v -2.750000 4.050000 2.000001
v -2.750000 4.050000 2.375001
v -2.750000 4.550000 2.375001
v -2.750000 4.550000 2.000001
v 4.750000 4.050000 2.375001
v 4.750000 4.050000 2.000001
v 4.750000 4.550000 2.000001
v 4.750000 4.550000 2.375001
v -2.750000 4.550000 2.375001
v 1.000000 4.550000 2.375001
v 1.000000 4.550000 2.000001
v -2.750000 4.550000 2.000001
v -2.750000 4.050000 2.375001
v 1.000000 4.050000 2.375001
v 1.000000 4.550000 2.375001
v -2.750000 4.550000 2.375001
v 1.996338 7.492871 0.424074
v 1.000000 7.492871 2.500001
v 5.125000 7.492871 2.500001
v 4.128662 7.492871 0.424074
v -1.250000 0.050000 1.750000
v 1.250000 0.050000 1.750000
v 1.250000 0.050000 0.500000
v -1.250000 0.050000 0.500000
v -1.250000 0.050000 0.500000
v -1.250000 3.300000 0.500001
v -1.250000 3.300000 2.000000
v -1.250000 0.050000 1.750000
v 2.121338 7.114210 -1.799071
v 2.121338 7.114209 0.299073
v 2.369385 7.114209 -0.076171
v 2.369385 7.114209 -1.423827
v 1.250000 0.050000 0.500000
v 1.250000 3.300000 0.500001
v -1.250000 3.300000 0.500001
v -1.250000 0.050000 0.500000
v -2.750000 4.550001 -2.499999
v -2.750000 0.050000 -2.500000
v -2.750000 0.050000 2.000000
v -2.750000 4.550000 2.000001
v 4.750000 0.050000 2.000000
v 4.750000 0.050000 -2.500000
v 4.750000 4.550001 -2.499999
v 4.750000 4.550000 2.000001
v 4.003662 7.114210 -1.799071
v 2.121338 7.114210 -1.799071
v 2.369385 7.114209 -1.423827
v 3.755615 7.114209 -1.423827
v -1.250000 0.050000 1.750000
v -1.250000 3.300000 2.000000
v -1.250000 0.050000 2.000000
v -2.750000 4.550000 2.000001
v 1.000000 4.550000 2.000001
v 1.000000 6.675000 2.000001
v 2.121338 7.114209 0.299073
v 1.996338 7.492871 -0.227538
v 1.996338 7.492871 0.424074
v 1.250000 3.300000 2.000000
v 1.250000 0.050000 1.750000
v 1.250000 0.050000 2.000000
vt 0.100586 -0.759766
vt 0.097656 -0.781250
vt 0.100586 -0.994141
vt 0.097656 -0.957031
vt 0.072266 -0.994141
vt 0.076172 -0.957031
vt 0.072266 -0.759766
vt 0.076172 -0.781250
vt 0.100586 -0.759766
vt 0.097656 -0.781250
vt -0.640625 0.906250
vt -0.640625 0.906250
vt -0.984375 0.906250
vt -0.984375 0.906250
vt -0.984375 0.984375
vt -0.984375 0.984375
vt -0.640625 0.984375
vt -0.640625 0.984375
vt -1.171875 -0.484375
vt -1.015625 -0.484375
vt -1.171875 -0.140625
vt -1.015625 -0.015625
vt -1.390625 -0.140625
vt -1.484375 -0.015625
vt -1.390625 -0.484375
vt -1.484375 -0.484375
vt -0.888672 -0.990234
vt -0.888672 -0.820312
vt -0.894531 -0.847656
vt -0.894531 -0.962891
vt -0.933594 -0.990234
vt -0.888672 -0.990234
vt -0.894531 -0.962891
vt -0.927734 -0.962891
vt -1.988281 0.207031
vt -1.988281 0.033203
vt -1.962891 0.033203
vt -1.962891 0.116211
vt -1.963867 0.033203
vt -1.963867 0.215820
vt -1.990234 0.215820
vt -1.990234 0.033203
vt -1.991211 0.033203
vt -1.965820 0.033203
vt -1.965820 0.207031
vt -1.991211 0.207031
vt -0.640625 0.906250
vt -0.640625 0.984375
vt -0.640625 0.984375
vt -0.640625 0.906250
vt -0.984375 0.906250
vt -0.640625 0.906250
vt -0.640625 0.906250
vt -0.984375 0.906250
vt -1.968750 -0.765625
vt -1.984375 -0.765625
vt -1.984375 -0.984375
vt -1.968750 -0.984375
vt -0.630859 0.265625
vt -0.630859 0.890625
vt -0.991211 0.890625
vt -0.991211 0.265625
vt -0.609375 0.515625
vt -0.515625 0.515625
vt -0.515625 0.984375
vt -0.609375 0.984375
vt -0.609375 0.515625
vt -0.515625 0.515625
vt -0.515625 0.984375
vt -0.609375 0.984375
vt -0.609375 0.515625
vt -0.515625 0.515625
vt -0.515625 0.984375
vt -0.609375 0.984375
vt -1.984375 -0.765625
vt -1.984375 -0.984375
vt -1.968750 -0.984375
vt -1.968750 -0.765625
vt -1.984375 -0.765625
vt -1.984375 -0.984375
vt -1.968750 -0.984375
vt -1.968750 -0.765625
vt -1.984375 -0.765625
vt -1.984375 -0.984375
vt -1.968750 -0.984375
vt -1.968750 -0.765625
vt -1.984375 -0.765625
vt -1.984375 -0.984375
vt -1.968750 -0.984375
vt -1.968750 -0.765625
vt -0.630859 0.265625
vt -0.630859 0.890625
vt -0.991211 0.890625
vt -0.991211 0.265625
vt -1.250000 0.015625
vt -1.015625 0.015625
vt -1.015625 0.484375
vt -1.250000 0.484375
vt -0.468750 -0.421875
vt -0.437500 -0.421875
vt -0.437500 -0.250000
vt -0.468750 -0.250000
vt 0.318359 -0.825195
vt 0.330078 -0.825195
vt 0.332031 -0.785156
vt 0.318359 -0.785156
vt 0.426758 -0.160156
vt 0.448242 -0.160156
vt 0.448242 -0.080078
vt 0.426758 -0.080078
vt 0.425781 -0.160156
vt 0.446289 -0.160156
vt 0.446289 -0.080078
vt 0.425781 -0.080078
vt 0.399414 -0.488281
vt 0.478516 -0.488281
vt 0.478516 -0.018555
vt 0.399414 -0.018555
vt 0.421875 -0.656250
vt 0.453125 -0.656250
vt 0.453125 -0.640625
vt 0.421875 -0.640625
vt 0.421875 -0.656250
vt 0.453125 -0.656250
vt 0.453125 -0.640625
vt 0.421875 -0.640625
vt 0.390625 -0.734375
vt 0.484375 -0.734375
vt 0.484375 -0.640625
vt 0.390625 -0.640625
vt 0.381836 -0.617188
vt 0.494141 -0.617188
vt 0.494141 -0.505859
vt 0.381836 -0.505859
vt 0.426758 -0.160156
vt 0.448242 -0.160156
vt 0.448242 -0.080078
vt 0.426758 -0.080078
vt 0.425781 -0.160156
vt 0.446289 -0.160156
vt 0.446289 -0.080078
vt 0.425781 -0.080078
vt 0.399414 -0.488281
vt 0.478516 -0.488281
vt 0.478516 -0.018555
vt 0.399414 -0.018555
vt 0.421875 -0.656250
vt 0.453125 -0.656250
vt 0.453125 -0.640625
vt 0.421875 -0.640625
vt 0.421875 -0.656250
vt 0.453125 -0.656250
vt 0.453125 -0.640625
vt 0.421875 -0.640625
vt 0.390625 -0.734375
vt 0.484375 -0.734375
vt 0.484375 -0.640625
vt 0.390625 -0.640625
vt 0.460938 -0.385742
vt 0.411133 -0.385742
vt 0.411133 -0.078125
vt 0.460938 -0.078125
vt 0.464844 -0.383789
vt 0.411133 -0.383789
vt 0.411133 -0.076172
vt 0.464844 -0.076172
vt 0.642578 -0.063477
vt 0.692383 -0.063477
vt 0.692383 -0.014648
vt 0.642578 -0.014648
vt 0.642578 -0.067383
vt 0.692383 -0.067383
vt 0.692383 -0.014648
vt 0.642578 -0.014648
vt 0.411133 -0.077148
vt 0.411133 -0.384766
vt 0.460938 -0.384766
vt 0.460938 -0.077148
vt 0.411133 -0.078125
vt 0.411133 -0.385742
vt 0.464844 -0.385742
vt 0.464844 -0.078125
vt -0.984375 0.984375
vt -0.984375 0.906250
vt -0.640625 0.906250
vt -0.640625 0.984375
vt 0.140625 -0.984375
vt 0.484375 -0.984375
vt 0.484375 -0.765625
vt 0.140625 -0.765625
vt 0.317383 -0.825195
vt 0.317383 -0.785156
vt 0.302734 -0.785156
vt 0.305664 -0.825195
vt -0.933594 -0.820312
vt -0.933594 -0.990234
vt -0.927734 -0.962891
vt -0.927734 -0.847656
vt 0.301758 -0.825195
vt 0.301758 -0.785156
vt 0.278320 -0.785156
vt 0.278320 -0.825195
vt -0.468750 -0.125000
vt -0.468750 -0.484375
vt -0.437500 -0.484375
vt -0.437500 -0.125000
vt -0.468750 -0.484375
vt -0.437500 -0.484375
vt -0.437500 -0.125000
vt -0.468750 -0.125000
vt -0.888672 -0.820312
vt -0.933594 -0.820312
vt -0.927734 -0.847656
vt -0.894531 -0.847656
vt 0.305664 -0.825195
vt 0.302734 -0.785156
vt 0.302734 -0.825195
vt -1.484375 0.015625
vt -1.250000 0.015625
vt -1.250000 0.484375
vt -1.988281 0.207031
vt -1.962891 0.116211
vt -1.962891 0.207031
vt 0.332031 -0.785156
vt 0.330078 -0.825195
vt 0.332031 -0.825195
vn 0.0000 -0.0000 1.0000
vn 0.0000 1.0000 0.0000
vn -0.0000 0.8104 -0.5859
vn 0.9493 0.3145 -0.0000
vn 0.0000 0.3144 0.9493
vn -0.0000 0.3145 0.9493
vn 0.0000 0.8104 0.5858
vn -0.9493 0.3145 0.0000
vn -0.9493 0.3144 0.0000
vn -0.9492 0.3146 0.0000
vn -0.0000 0.3144 -0.9493
vn 0.0000 0.3145 -0.9493
vn -0.0000 0.8104 -0.5858
vn -1.0000 0.0000 0.0000
vn -0.4957 0.8685 0.0000
vn 1.0000 -0.0000 0.0000
vn 0.0000 0.8104 0.5859
usemtl yo_h01_a
s 1
f 1/1/1 2/2/1 3/3/1
f 2/2/1 4/4/1 3/3/1
f 3/3/1 4/4/1 5/5/1
f 4/4/1 6/6/1 5/5/1
f 5/5/1 6/6/1 7/7/1
f 6/6/1 8/8/1 7/7/1
f 7/7/1 8/8/1 9/9/1
f 8/8/1 10/10/1 9/9/1
f 11/11/2 12/12/2 13/13/2
f 12/12/2 14/14/2 13/13/2
f 13/13/2 14/14/2 15/15/2
f 14/14/2 16/16/2 15/15/2
f 15/15/2 16/16/2 17/17/2
f 16/16/2 18/18/2 17/17/2
f 19/19/1 20/20/1 21/21/1
f 20/20/1 22/22/1 21/21/1
f 21/21/1 22/22/1 23/23/1
f 22/22/1 24/24/1 23/23/1
f 23/23/1 24/24/1 25/25/1
f 24/24/1 26/26/1 25/25/1
f 27/27/2 28/28/2 29/29/2
f 29/29/2 30/30/2 27/27/2
f 31/31/3 32/32/3 33/33/2
f 33/33/2 34/34/2 31/31/3
f 35/35/4 36/36/4 37/37/4
f 37/37/4 38/38/4 35/35/4
f 39/39/5 40/40/6 41/41/7
f 41/41/7 42/42/7 39/39/5
f 43/43/8 44/44/9 45/45/10
f 45/45/10 46/46/8 43/43/8
f 47/47/11 48/48/12 49/49/13
f 49/49/13 50/50/13 47/47/11
f 51/51/2 52/52/2 53/53/2
f 53/53/2 54/54/2 51/51/2
f 55/55/14 56/56/14 57/57/14
f 57/57/14 58/58/14 55/55/14
f 59/59/15 60/60/15 61/61/15
f 61/61/15 62/62/15 59/59/15
f 63/63/16 64/64/16 65/65/16
f 65/65/16 66/66/16 63/63/16
f 67/67/14 68/68/14 69/69/14
f 69/69/14 70/70/14 67/67/14
f 71/71/1 72/72/1 73/73/1
f 73/73/1 74/74/1 71/71/1
f 75/75/16 76/76/16 77/77/16
f 77/77/16 78/78/16 75/75/16
f 79/79/1 80/80/1 81/81/1
f 81/81/1 82/82/1 79/79/1
f 83/83/14 84/84/14 85/85/14
f 85/85/14 86/86/14 83/83/14
f 87/87/1 88/88/1 89/89/1
f 89/89/1 90/90/1 87/87/1
f 91/91/15 92/92/15 93/93/15
f 93/93/15 94/94/15 91/91/15
f 95/95/1 96/96/1 97/97/1
f 97/97/1 98/98/1 95/95/1
f 99/99/16 100/100/16 101/101/16
f 101/101/16 102/102/16 99/99/16
f 103/103/14 104/104/14 105/105/14
f 105/105/14 106/106/14 103/103/14
f 107/107/14 108/108/14 109/109/14
f 109/109/14 110/110/14 107/107/14
f 111/111/16 112/112/16 113/113/16
f 113/113/16 114/114/16 111/111/16
f 115/115/1 116/116/1 117/117/1
f 117/117/1 118/118/1 115/115/1
f 119/119/14 120/120/14 121/121/14
f 121/121/14 122/122/14 119/119/14
f 123/123/16 124/124/16 125/125/16
f 125/125/16 126/126/16 123/123/16
f 127/127/1 128/128/1 129/129/1
f 129/129/1 130/130/1 127/127/1
f 131/131/1 132/132/1 133/133/1
f 133/133/1 134/134/1 131/131/1
f 135/135/14 136/136/14 137/137/14
f 137/137/14 138/138/14 135/135/14
f 139/139/16 140/140/16 141/141/16
f 141/141/16 142/142/16 139/139/16
f 143/143/1 144/144/1 145/145/1
f 145/145/1 146/146/1 143/143/1
f 147/147/14 148/148/14 149/149/14
f 149/149/14 150/150/14 147/147/14
f 151/151/16 152/152/16 153/153/16
f 153/153/16 154/154/16 151/151/16
f 155/155/1 156/156/1 157/157/1
f 157/157/1 158/158/1 155/155/1
f 159/159/2 160/160/2 161/161/2
f 161/161/2 162/162/2 159/159/2
f 163/163/1 164/164/1 165/165/1
f 165/165/1 166/166/1 163/163/1
f 167/167/14 168/168/14 169/169/14
f 169/169/14 170/170/14 167/167/14
f 171/171/16 172/172/16 173/173/16
f 173/173/16 174/174/16 171/171/16
f 175/175/2 176/176/2 177/177/2
f 177/177/2 178/178/2 175/175/2
f 179/179/1 180/180/1 181/181/1
f 181/181/1 182/182/1 179/179/1
f 183/183/2 184/184/2 185/185/2
f 185/185/2 186/186/2 183/183/2
f 187/187/2 188/188/2 189/189/2
f 189/189/2 190/190/2 187/187/2
f 191/191/16 192/192/16 193/193/16
f 193/193/16 194/194/16 191/191/16
f 195/195/2 196/196/2 197/197/2
f 197/197/2 198/198/2 195/195/2
f 199/199/1 200/200/1 201/201/1
f 201/201/1 202/202/1 199/199/1
f 203/203/14 204/204/14 205/205/14
f 205/205/14 206/206/14 203/203/14
f 207/207/16 208/208/16 209/209/16
f 209/209/16 210/210/16 207/207/16
f 211/211/17 212/212/17 213/213/2
f 213/213/2 214/214/2 211/211/17
f 215/215/16 216/216/16 217/217/16
f 218/218/1 219/219/1 220/220/1
f 221/221/4 222/222/4 223/223/4
f 224/224/14 225/225/14 226/226/14
o polygon1
v 2.369385 7.114209 -0.076171
v 3.755615 7.114209 -0.076171
v 3.755615 7.114209 -1.423827
v 2.369385 7.114209 -1.423827
v 3.375000 3.050000 2.125000
v 1.875000 3.050000 2.125000
v 1.875000 0.871045 2.125000
v 3.375000 0.871045 2.125000
vt 0.000000 -1.000000
vt 1.000000 -1.000000
vt 1.000000 0.000000
vt 0.000000 0.000000
vt 1.000000 0.000000
vt 0.000000 0.000000
vt 0.000000 -1.000000
vt 1.000000 -1.000000
vn 0.0000 -0.0000 1.0000
usemtl h_mado
s 1
f 227/227/18 228/228/18 229/229/18
f 229/229/18 230/230/18 227/227/18
f 231/231/18 232/232/18 233/233/18
f 233/233/18 234/234/18 231/231/18
o polygon2
v -1.500000 0.004999 4.000000
v 4.850586 0.004999 4.000000
v -1.500000 0.005000 2.500000
v 4.850586 0.005000 2.500000
v -1.500000 0.005000 -2.000000
v 4.850586 0.005000 -2.000000
v -1.500000 0.005001 -3.250000
v 4.850586 0.005001 -3.250000
v 4.850586 0.004999 4.000000
v 6.000000 0.004999 4.000000
v 4.850586 0.005000 2.500000
v 6.000000 0.005000 2.500000
v 4.850586 0.005000 -2.000000
v 6.000000 0.005000 -2.000000
v -3.000000 0.005000 2.500000
v -1.500000 0.005000 2.500000
v -3.000000 0.005000 -2.000000
v -1.500000 0.005000 -2.000000
v -3.000000 0.005001 -3.250000
v -1.500000 0.005001 -3.250000
v 4.850586 0.005001 -3.250000
v 4.850586 0.005000 -2.000000
v 6.000000 0.005000 -2.000000
v -3.000000 0.005000 2.500000
v -1.500000 0.004999 4.000000
v -1.500000 0.005000 2.500000
vt 0.179688 0.000000
vt 0.710938 0.000000
vt 0.179688 0.304688
vt 0.710938 0.304688
vt 0.179688 0.742188
vt 0.710938 0.742188
vt 0.179688 1.000000
vt 0.710938 1.000000
vt 0.710938 0.000000
vt 1.000000 0.000000
vt 0.710938 0.304688
vt 1.000000 0.304688
vt 0.710938 0.742188
vt 1.000000 0.742188
vt 0.000000 0.304688
vt 0.179688 0.304688
vt 0.000000 0.742188
vt 0.179688 0.742188
vt 0.000000 1.000000
vt 0.179688 1.000000
vt 0.710938 1.000000
vt 0.710938 0.742188
vt 1.000000 0.742188
vt 0.000000 0.304688
vt 0.179688 0.000000
vt 0.179688 0.304688
vn 0.0000 1.0000 0.0000
usemtl h_kage
s 1
f 235/235/19 236/236/19 237/237/19
f 236/236/19 238/238/19 237/237/19
f 237/237/19 238/238/19 239/239/19
f 238/238/19 240/240/19 239/239/19
f 239/239/19 240/240/19 241/241/19
f 240/240/19 242/242/19 241/241/19
f 243/243/19 244/244/19 245/245/19
f 244/244/19 246/246/19 245/245/19
f 245/245/19 246/246/19 247/247/19
f 246/246/19 248/248/19 247/247/19
f 249/249/19 250/250/19 251/251/19
f 250/250/19 252/252/19 251/251/19
f 251/251/19 252/252/19 253/253/19
f 252/252/19 254/254/19 253/253/19
f 255/255/19 256/256/19 257/257/19
f 258/258/19 259/259/19 260/260/19
